<svg width="1200" height="630" viewBox="0 0 1200 630" xmlns="http://www.w3.org/2000/svg"><rect x="0" y="0" width="1200" height="630" fill="#fefbfb"/><defs><clipPath id="satori_bc-id-0"><path x="105" y="39" width="1056" height="504" d="M109,39 h1048 a4,4 0 0 1 4,4 v496 a4,4 0 0 1 -4,4 h-1048 a4,4 0 0 1 -4,-4 v-496 a4,4 0 0 1 4,-4"/></clipPath></defs><g opacity="0.9"><path x="105" y="39" width="1056" height="504" fill="#ecebeb" d="M109,39 h1048 a4,4 0 0 1 4,4 v496 a4,4 0 0 1 -4,4 h-1048 a4,4 0 0 1 -4,-4 v-496 a4,4 0 0 1 4,-4"/><path width="1056" height="504" clip-path="url(#satori_bc-id-0)" fill="none" stroke="#000" stroke-width="8" d="M106.172,40.172 A4,4 0 0 1 109,39 h1048 a4,4 0 0 1 4,4 v496 a4,4 0 0 1 -4,4 h-1048 a4,4 0 0 1 -4,-4 v-496 A4,4 0 0 1 106.172,40.172"/></g><defs><clipPath id="satori_bc-id-1"><path x="72" y="63" width="1056" height="504" d="M76,63 h1048 a4,4 0 0 1 4,4 v496 a4,4 0 0 1 -4,4 h-1048 a4,4 0 0 1 -4,-4 v-496 a4,4 0 0 1 4,-4"/></clipPath></defs><path x="72" y="63" width="1056" height="504" fill="#fefbfb" d="M76,63 h1048 a4,4 0 0 1 4,4 v496 a4,4 0 0 1 -4,4 h-1048 a4,4 0 0 1 -4,-4 v-496 a4,4 0 0 1 4,-4"/><path width="1056" height="504" clip-path="url(#satori_bc-id-1)" fill="none" stroke="#000" stroke-width="8" d="M73.172,64.172 A4,4 0 0 1 76,63 h1048 a4,4 0 0 1 4,4 v496 a4,4 0 0 1 -4,4 h-1048 a4,4 0 0 1 -4,-4 v-496 A4,4 0 0 1 73.172,64.172"/><clipPath id="satori_cp-id-1-0-0"><rect x="128" y="103" width="944" height="94"/></clipPath><mask id="satori_om-id-1-0-0"><rect x="128" y="103" width="944" height="94" fill="#fff"/></mask><path fill="black" d="M168.9 183.0L130.3 183.0L130.3 126.8L168.9 126.8L168.9 183.0ZM137.5 134.0L137.5 175.8L161.7 175.8L161.7 134.0L137.5 134.0ZM212.1 183.0L173.5 183.0L173.5 126.8L212.1 126.8L212.1 183.0ZM180.7 134.0L180.7 175.8L204.9 175.8L204.9 134.0L180.7 134.0Z M297.6 173.9L297.6 183.0L261.4 183.0L261.4 173.1L277.3 159.9Q281.4 156.4 283.2 153.8Q285.0 151.2 285.0 148.3L285.0 148.3L285.0 147.6Q285.0 144.4 283.1 142.8Q281.2 141.2 278.0 141.2L278.0 141.2Q274.4 141.2 272.5 143.3Q270.6 145.4 269.8 148.2L269.8 148.2L260.3 144.6Q261.2 142.1 262.7 139.7Q264.2 137.4 266.6 135.6Q268.9 133.9 272 132.9Q275.1 131.8 279.1 131.8L279.1 131.8Q283.2 131.8 286.5 133.0Q289.7 134.1 291.9 136.2Q294.2 138.2 295.3 140.9Q296.5 143.7 296.5 147.0L296.5 147.0Q296.5 150.1 295.4 152.7Q294.4 155.4 292.6 157.7Q290.7 160.0 288.2 162.1Q285.8 164.3 282.9 166.5L282.9 166.5L273.4 173.9L297.6 173.9ZM322.4 183.8L322.4 183.8Q312.3 183.8 307.5 177.0Q302.7 170.1 302.7 157.8L302.7 157.8Q302.7 145.5 307.5 138.7Q312.3 131.8 322.4 131.8L322.4 131.8Q332.5 131.8 337.3 138.7Q342.1 145.5 342.1 157.8L342.1 157.8Q342.1 170.1 337.3 177.0Q332.5 183.8 322.4 183.8ZM322.4 175.3L322.4 175.3Q327.2 175.3 329.1 171.9Q331.0 168.6 331.0 162.5L331.0 162.5L331.0 153.1Q331.0 147.1 329.1 143.7Q327.2 140.3 322.4 140.3L322.4 140.3Q317.6 140.3 315.7 143.7Q313.8 147.1 313.8 153.1L313.8 153.1L313.8 162.5Q313.8 168.6 315.7 171.9Q317.6 175.3 322.4 175.3ZM322.4 162.1L322.4 162.1Q319.9 162.1 318.9 161.1Q317.9 160.1 317.9 158.6L317.9 158.6L317.9 157.0Q317.9 155.6 318.9 154.6Q319.9 153.6 322.4 153.6L322.4 153.6Q324.9 153.6 325.9 154.6Q326.9 155.6 326.9 157.0L326.9 157.0L326.9 158.6Q326.9 160.1 325.9 161.1Q324.9 162.1 322.4 162.1ZM384.0 173.9L384.0 183.0L347.8 183.0L347.8 173.1L363.7 159.9Q367.8 156.4 369.6 153.8Q371.4 151.2 371.4 148.3L371.4 148.3L371.4 147.6Q371.4 144.4 369.5 142.8Q367.6 141.2 364.4 141.2L364.4 141.2Q360.8 141.2 358.9 143.3Q357.0 145.4 356.2 148.2L356.2 148.2L346.7 144.6Q347.6 142.1 349.1 139.7Q350.6 137.4 353.0 135.6Q355.3 133.9 358.4 132.9Q361.5 131.8 365.5 131.8L365.5 131.8Q369.6 131.8 372.9 133.0Q376.1 134.1 378.3 136.2Q380.6 138.2 381.7 140.9Q382.9 143.7 382.9 147.0L382.9 147.0Q382.9 150.1 381.8 152.7Q380.8 155.4 379.0 157.7Q377.1 160.0 374.6 162.1Q372.2 164.3 369.3 166.5L369.3 166.5L359.8 173.9L384.0 173.9ZM402.1 152.6L406.9 152.6Q411.0 152.6 412.9 151.0Q414.8 149.4 414.8 147.1L414.8 147.1L414.8 146.6Q414.8 143.9 413.0 142.2Q411.2 140.6 407.8 140.6L407.8 140.6Q404.7 140.6 402.0 142.2Q399.3 143.7 397.4 146.6L397.4 146.6L390.6 140.3Q392.0 138.4 393.8 136.8Q395.5 135.3 397.6 134.2Q399.7 133.1 402.3 132.4Q404.9 131.8 408.2 131.8L408.2 131.8Q412.3 131.8 415.6 132.8Q419.0 133.7 421.3 135.5Q423.6 137.2 424.9 139.7Q426.2 142.1 426.2 145.2L426.2 145.2Q426.2 147.5 425.4 149.5Q424.6 151.4 423.3 152.9Q422.0 154.3 420.2 155.2Q418.4 156.1 416.4 156.5L416.4 156.5L416.4 156.9Q421.0 157.7 424.1 160.7Q427.2 163.8 427.2 169.0L427.2 169.0Q427.2 172.4 425.8 175.1Q424.4 177.8 421.8 179.8Q419.2 181.7 415.6 182.8Q412.0 183.8 407.5 183.8L407.5 183.8Q403.7 183.8 400.8 183.0Q397.9 182.2 395.6 180.9Q393.4 179.6 391.8 177.8Q390.2 176.0 388.9 174.2L388.9 174.2L396.9 168.0Q398.6 171.1 401.1 173.1Q403.5 175.0 407.7 175.0L407.7 175.0Q411.6 175.0 413.7 173.2Q415.8 171.4 415.8 168.3L415.8 168.3L415.8 167.8Q415.8 164.7 413.4 163.1Q411.0 161.6 406.8 161.6L406.8 161.6L402.1 161.6L402.1 152.6Z " clip-path="url(#satori_cp-id-1-0-0)" mask="url(#satori_om-id-1-0-0)"/><path fill="black" d="M130.7 520.3L130.7 499.6L132.9 499.6L132.9 508.2L133.0 508.2Q134.4 505.5 137.5 505.5L137.5 505.5Q140.1 505.5 141.6 507.5Q143.1 509.5 143.1 513.0L143.1 513.0Q143.1 516.6 141.6 518.6Q140.1 520.6 137.5 520.6L137.5 520.6Q134.4 520.6 133.0 517.9L133.0 517.9L132.9 517.9L132.9 520.3L130.7 520.3ZM136.6 518.6L136.6 518.6Q138.6 518.6 139.6 517.4Q140.7 516.2 140.7 514.3L140.7 514.3L140.7 511.8Q140.7 509.9 139.6 508.7Q138.6 507.5 136.6 507.5L136.6 507.5Q135.8 507.5 135.2 507.7Q134.5 507.9 134.0 508.2Q133.5 508.6 133.2 509.2Q132.9 509.7 132.9 510.4L132.9 510.4L132.9 515.7Q132.9 516.4 133.2 516.9Q133.5 517.5 134.0 517.8Q134.5 518.2 135.2 518.4Q135.8 518.6 136.6 518.6ZM155.4 511.9L157.9 505.8L160.1 505.8L152.9 523.4Q152.7 524.1 152.4 524.5Q152.1 525.0 151.7 525.3Q151.2 525.6 150.7 525.7Q150.1 525.9 149.3 525.9L149.3 525.9L147.1 525.9L147.1 524.0L150.5 524.0L152.1 520.0L146.3 505.8L148.6 505.8L151.0 511.9L153.2 517.4L153.3 517.4L155.4 511.9Z "/><clipPath id="satori_cp-id-1-0-1-0-2"><rect x="178" y="489" width="50" height="36"/></clipPath><mask id="satori_om-id-1-0-1-0-2"><rect x="178" y="489" width="50" height="36" fill="#fff"/></mask><path fill="black" d="M193.2 520.1L180.6 520.1L180.6 500.5L184.8 500.5L184.8 516.6L193.2 516.6L193.2 520.1ZM203.2 520.4L203.2 520.4Q201.5 520.4 200.2 519.9Q198.8 519.4 197.9 518.4Q197.0 517.4 196.5 516.0Q195.9 514.6 195.9 512.9L195.9 512.9Q195.9 511.1 196.5 509.7Q197.0 508.3 197.9 507.3Q198.8 506.3 200.2 505.8Q201.5 505.3 203.2 505.3L203.2 505.3Q204.9 505.3 206.2 505.8Q207.6 506.3 208.5 507.3Q209.4 508.3 209.9 509.7Q210.5 511.1 210.5 512.9L210.5 512.9Q210.5 514.6 209.9 516.0Q209.4 517.4 208.5 518.4Q207.6 519.4 206.2 519.9Q204.9 520.4 203.2 520.4ZM203.2 517.3L203.2 517.3Q204.6 517.3 205.4 516.5Q206.2 515.6 206.2 514.0L206.2 514.0L206.2 511.7Q206.2 510.1 205.4 509.3Q204.6 508.4 203.2 508.4L203.2 508.4Q201.8 508.4 201.0 509.3Q200.2 510.1 200.2 511.7L200.2 511.7L200.2 514.0Q200.2 515.6 201.0 516.5Q201.8 517.3 203.2 517.3ZM222.4 520.1L222.4 517.5L222.3 517.5Q221.8 518.7 220.8 519.6Q219.7 520.4 218.0 520.4L218.0 520.4Q217.0 520.4 216.1 520.1Q215.2 519.7 214.6 519.0Q214.0 518.3 213.7 517.3Q213.3 516.3 213.3 515.0L213.3 515.0L213.3 505.6L217.5 505.6L217.5 514.4Q217.5 517.2 219.9 517.2L219.9 517.2Q220.4 517.2 220.8 517.1Q221.3 517.0 221.6 516.7Q222.0 516.5 222.2 516.1Q222.4 515.7 222.4 515.1L222.4 515.1L222.4 505.6L226.6 505.6L226.6 520.1L222.4 520.1Z " clip-path="url(#satori_cp-id-1-0-1-0-2)" mask="url(#satori_om-id-1-0-1-0-2)"/><clipPath id="satori_cp-id-1-0-1-1"><rect x="954" y="489" width="118" height="36"/></clipPath><mask id="satori_om-id-1-0-1-1"><rect x="954" y="489" width="118" height="36" fill="#fff"/></mask><path fill="black" d="M969.2 520.1L956.6 520.1L956.6 500.5L960.8 500.5L960.8 516.6L969.2 516.6L969.2 520.1ZM979.2 520.4L979.2 520.4Q977.5 520.4 976.2 519.9Q974.8 519.4 973.9 518.4Q973.0 517.4 972.5 516.0Q971.9 514.6 971.9 512.9L971.9 512.9Q971.9 511.1 972.5 509.7Q973.0 508.3 973.9 507.3Q974.8 506.3 976.2 505.8Q977.5 505.3 979.2 505.3L979.2 505.3Q980.9 505.3 982.2 505.8Q983.6 506.3 984.5 507.3Q985.4 508.3 985.9 509.7Q986.5 511.1 986.5 512.9L986.5 512.9Q986.5 514.6 985.9 516.0Q985.4 517.4 984.5 518.4Q983.6 519.4 982.2 519.9Q980.9 520.4 979.2 520.4ZM979.2 517.3L979.2 517.3Q980.6 517.3 981.4 516.5Q982.2 515.6 982.2 514.0L982.2 514.0L982.2 511.7Q982.2 510.1 981.4 509.3Q980.6 508.4 979.2 508.4L979.2 508.4Q977.8 508.4 977.0 509.3Q976.2 510.1 976.2 511.7L976.2 511.7L976.2 514.0Q976.2 515.6 977.0 516.5Q977.8 517.3 979.2 517.3ZM998.4 520.1L998.4 517.5L998.3 517.5Q997.8 518.7 996.8 519.6Q995.7 520.4 994.0 520.4L994.0 520.4Q993.0 520.4 992.1 520.1Q991.2 519.7 990.6 519.0Q990.0 518.3 989.7 517.3Q989.3 516.3 989.3 515.0L989.3 515.0L989.3 505.6L993.5 505.6L993.5 514.4Q993.5 517.2 995.9 517.2L995.9 517.2Q996.4 517.2 996.8 517.1Q997.3 517.0 997.6 516.7Q998.0 516.5 998.2 516.1Q998.4 515.7 998.4 515.1L998.4 515.1L998.4 505.6L1002.6 505.6L1002.6 520.1L998.4 520.1Z M1037.1 520.1L1022.1 520.1L1022.1 498.3L1037.1 498.3L1037.1 520.1ZM1024.9 501.1L1024.9 517.3L1034.3 517.3L1034.3 501.1L1024.9 501.1ZM1053.9 520.1L1038.9 520.1L1038.9 498.3L1053.9 498.3L1053.9 520.1ZM1041.7 501.1L1041.7 517.3L1051.1 517.3L1051.1 501.1L1041.7 501.1ZM1070.7 520.1L1055.7 520.1L1055.7 498.3L1070.7 498.3L1070.7 520.1ZM1058.5 501.1L1058.5 517.3L1067.9 517.3L1067.9 501.1L1058.5 501.1Z " clip-path="url(#satori_cp-id-1-0-1-1)" mask="url(#satori_om-id-1-0-1-1)"/></svg>